<svg width="12" height="12" viewBox="0 0 12 12" fill="none" xmlns="http://www.w3.org/2000/svg">
<path fill-rule="evenodd" clip-rule="evenodd" d="M3.59995 1.20001C3.44082 1.20001 3.28821 1.26323 3.17569 1.37575C3.06317 1.48827 2.99995 1.64088 2.99995 1.80001V2.40001H2.39995C2.08169 2.40001 1.77647 2.52644 1.55142 2.75148C1.32638 2.97653 1.19995 3.28175 1.19995 3.60001V9.60001C1.19995 9.91827 1.32638 10.2235 1.55142 10.4485C1.77647 10.6736 2.08169 10.8 2.39995 10.8H9.59995C9.91821 10.8 10.2234 10.6736 10.4485 10.4485C10.6735 10.2235 10.8 9.91827 10.8 9.60001V3.60001C10.8 3.28175 10.6735 2.97653 10.4485 2.75148C10.2234 2.52644 9.91821 2.40001 9.59995 2.40001H8.99995V1.80001C8.99995 1.64088 8.93674 1.48827 8.82422 1.37575C8.71169 1.26323 8.55908 1.20001 8.39995 1.20001C8.24082 1.20001 8.08821 1.26323 7.97569 1.37575C7.86317 1.48827 7.79995 1.64088 7.79995 1.80001V2.40001H4.19995V1.80001C4.19995 1.64088 4.13674 1.48827 4.02422 1.37575C3.91169 1.26323 3.75908 1.20001 3.59995 1.20001ZM3.59995 4.20001C3.44082 4.20001 3.28821 4.26323 3.17569 4.37575C3.06317 4.48827 2.99995 4.64088 2.99995 4.80001C2.99995 4.95914 3.06317 5.11175 3.17569 5.22428C3.28821 5.3368 3.44082 5.40001 3.59995 5.40001H8.39995C8.55908 5.40001 8.71169 5.3368 8.82422 5.22428C8.93674 5.11175 8.99995 4.95914 8.99995 4.80001C8.99995 4.64088 8.93674 4.48827 8.82422 4.37575C8.71169 4.26323 8.55908 4.20001 8.39995 4.20001H3.59995Z" fill="black"/>
</svg>
